<?xml version="1.0" encoding="utf-8"?>
<svg xmlns="http://www.w3.org/2000/svg" viewBox="0 0 500 500" xmlns:bx="https://boxy-svg.com" width="500px" height="500px"><defs><clipPath id="a"><path fill="#fff" d="M0 0h152.308v44H0z"/></clipPath><bx:export><bx:file format="svg"/></bx:export></defs><g clip-path="url(#a)" fill="#fff" transform="matrix(1.245045, 0, 0, 1.20196, 18.040314, 220.891006)" style=""><path d="M80.5 14.572h4.152v21.16H80.5v-21.16ZM104.614 28.328c-.221 1.217-.735 2.229-1.543 3.035-1.056 1.053-2.474 1.58-4.254 1.58-1.919 0-3.453-.732-4.604-2.194-1.151-1.463-1.726-3.41-1.726-5.843 0-2.297.575-4.128 1.726-5.496 1.15-1.367 2.685-2.05 4.604-2.05 1.78 0 3.205.506 4.273 1.517.847.802 1.367 1.832 1.559 3.097h4.183c-.19-1.38-.63-2.625-1.323-3.733-.863-1.38-2.049-2.445-3.555-3.198-1.507-.751-3.22-1.128-5.137-1.128-2.084 0-3.92.451-5.509 1.354-1.589.902-2.829 2.194-3.72 3.875-.89 1.682-1.336 3.629-1.336 5.843 0 2.352.452 4.382 1.356 6.09.905 1.708 2.151 3.02 3.742 3.936 1.589.915 3.411 1.374 5.467 1.374 1.917 0 3.63-.37 5.137-1.107 1.506-.739 2.699-1.804 3.576-3.199.691-1.098 1.126-2.35 1.306-3.753h-4.222ZM76.37 17.401v-2.829h-5.877v-4.518H69.03L67 13.464a3.492 3.492 0 0 1-1.88 1.522l-2.395.813V17.4h3.617v12.876c0 1.558.233 2.747.699 3.568.465.82 1.198 1.373 2.199 1.66 1 .287 2.404.43 4.213.43.877 0 1.85-.04 2.918-.122v-3.445a36.7 36.7 0 0 1-2.754.123c-1.178 0-1.993-.177-2.446-.533-.452-.355-.678-1.08-.678-2.173V17.401h5.878ZM127.092 31.016c-1.014-1.722-1.522-3.704-1.522-5.946 0-2.214.508-4.162 1.522-5.843a10.57 10.57 0 0 1 4.11-3.916c1.726-.93 3.589-1.394 5.59-1.394s3.863.465 5.59 1.394a10.556 10.556 0 0 1 4.11 3.916c1.014 1.681 1.521 3.629 1.521 5.843 0 2.242-.507 4.224-1.521 5.946-1.013 1.722-2.377 3.048-4.089 3.977-1.713.93-3.584 1.395-5.611 1.395-2.027 0-3.898-.465-5.611-1.395-1.712-.93-3.075-2.255-4.089-3.977Zm16.729-5.946c0-2.405-.638-4.292-1.912-5.659-1.274-1.366-2.98-2.05-5.117-2.05-2.11 0-3.802.684-5.077 2.05-1.274 1.367-1.91 3.253-1.91 5.66 0 2.46.636 4.387 1.91 5.78 1.275 1.395 2.967 2.092 5.077 2.092 2.137 0 3.843-.697 5.117-2.091 1.274-1.394 1.912-3.322 1.912-5.782ZM82.575 12.45a2.4 2.4 0 0 0 2.403-2.396 2.4 2.4 0 0 0-2.403-2.398 2.4 2.4 0 0 0-2.403 2.397 2.4 2.4 0 0 0 2.403 2.398ZM150.71 16.156c-.06-.053-.156-.082-.289-.085v-.019a.5.5 0 0 0 .335-.14.435.435 0 0 0 .127-.321.405.405 0 0 0-.159-.339c-.106-.082-.252-.123-.438-.123h-.886v1.836h.342v-.687h.442c.079 0 .139.007.181.02a.17.17 0 0 1 .096.07.413.413 0 0 1 .049.154l.074.443h.347l-.1-.543c-.021-.124-.062-.213-.121-.266Zm-.505-.133h-.463v-.616h.463c.104 0 .186.027.248.081a.27.27 0 0 1 .094.216.303.303 0 0 1-.095.232.348.348 0 0 1-.247.087Z"/><path d="M150.164 13.909c-1.182 0-2.144.959-2.144 2.138a2.144 2.144 0 0 0 4.288 0c0-1.18-.962-2.138-2.144-2.138Zm0 3.91c-.98 0-1.777-.794-1.777-1.772a1.777 1.777 0 0 1 3.553 0c0 .978-.797 1.773-1.776 1.773ZM123.769 17.401v-2.829h-5.877v-4.518h-1.465l-2.028 3.411a3.494 3.494 0 0 1-1.88 1.522l-2.396.813V17.4h3.617v12.876c0 1.558.233 2.747.699 3.568.466.82 1.199 1.373 2.199 1.66 1 .287 2.405.43 4.213.43.877 0 1.85-.04 2.918-.122v-3.445a36.677 36.677 0 0 1-2.754.123c-1.178 0-1.993-.177-2.445-.533-.452-.355-.678-1.08-.678-2.173V17.401h5.877ZM40.487 0H3.617A3.614 3.614 0 0 0 0 3.61v36.783a3.612 3.612 0 0 0 3.616 3.608h36.871a3.614 3.614 0 0 0 3.62-3.608V3.61A3.617 3.617 0 0 0 40.486 0Zm-5.572 15.667h-9.188v20.167h-7.351v-5.91l.003-.002V22.84c0-.484.194-.948.537-1.29l4.784-4.777a.645.645 0 0 0 0-.915.645.645 0 0 0-.459-.19H9.188v-5.5h25.727v5.5Z"/></g><path d="M 298.039 268.446 L 298.039 226.442 C 298.039 226.21 298.176 226.064 298.394 226.064 L 305.987 226.064 C 306.205 226.064 306.342 226.297 306.342 226.442 L 306.342 241.616 L 306.479 241.616 C 308.473 238.913 311.532 237.692 314.864 237.692 C 320.818 237.692 322.73 241.849 322.73 247.372 L 322.73 268.534 C 322.73 268.679 322.593 268.912 322.375 268.912 L 314.782 268.912 C 314.563 268.912 314.427 268.766 314.427 268.534 L 314.427 248.128 C 314.427 245.715 312.105 245.017 310.603 245.017 C 309.101 245.017 306.315 246.093 306.315 249.029 L 306.315 268.446 C 306.315 268.592 306.178 268.824 305.96 268.824 L 298.394 268.824 C 298.285 268.766 298.039 268.621 298.039 268.446 Z M 358.564 260.104 L 358.564 245.657 L 355.096 245.657 C 354.877 245.657 354.741 245.511 354.741 245.279 L 354.741 240.046 C 354.741 239.901 354.877 239.756 354.959 239.668 C 355.096 239.581 359.547 238.215 359.547 238.215 C 359.547 238.215 361.951 230.076 362.06 229.872 C 362.142 229.669 362.197 229.64 362.415 229.64 L 366.512 229.64 C 366.731 229.64 366.867 229.785 366.867 230.018 L 366.867 238.157 L 372.958 238.157 C 373.094 238.157 373.313 238.302 373.313 238.535 L 373.313 245.162 C 373.313 245.395 373.094 245.54 372.958 245.54 L 366.867 245.54 L 366.867 259.144 C 366.867 260.598 367.632 261.412 369.407 261.412 L 372.958 261.412 C 373.177 261.412 373.313 261.644 373.313 261.79 L 373.313 267.603 C 373.313 267.836 373.177 267.894 373.094 267.981 C 370.965 268.795 369.763 269.348 367.277 269.348 C 361.159 269.406 358.564 265.539 358.564 260.104 Z M 477.403 260.104 L 477.403 245.657 L 473.934 245.657 C 473.715 245.657 473.579 245.511 473.579 245.279 L 473.579 240.046 C 473.579 239.901 473.715 239.756 473.797 239.668 C 473.934 239.581 478.386 238.215 478.386 238.215 C 478.386 238.215 480.79 230.076 480.898 229.872 C 480.981 229.727 481.035 229.64 481.253 229.64 L 485.351 229.64 C 485.569 229.64 485.706 229.785 485.706 230.018 L 485.706 238.157 L 491.797 238.157 C 491.933 238.157 492.152 238.302 492.152 238.535 L 492.152 245.162 C 492.152 245.395 491.933 245.54 491.797 245.54 L 485.706 245.54 L 485.706 259.144 C 485.706 260.598 486.47 261.412 488.246 261.412 L 491.797 261.412 C 492.015 261.412 492.152 261.644 492.152 261.79 L 492.152 267.603 C 492.152 267.836 492.015 267.894 491.933 267.981 C 489.803 268.795 488.601 269.348 486.115 269.348 C 479.861 269.406 477.403 265.539 477.403 260.104 Z M 378.421 268.446 L 378.421 238.593 C 378.421 238.36 378.557 238.215 378.776 238.215 L 385.659 238.215 C 385.795 238.215 385.932 238.36 386.014 238.506 C 386.014 238.651 386.778 241.5 386.778 241.5 L 386.915 241.5 C 388.909 238.796 391.886 237.575 395.191 237.575 C 399.233 237.575 401.254 239.552 402.347 242.576 L 402.566 242.576 C 404.614 238.884 408.246 237.575 411.579 237.575 C 417.532 237.575 419.445 241.732 419.445 247.255 L 419.445 268.417 C 419.445 268.65 419.308 268.795 419.09 268.795 L 411.497 268.795 C 411.278 268.795 411.141 268.563 411.141 268.417 L 411.141 248.157 C 411.141 245.744 409.011 244.813 407.509 244.813 C 405.816 244.813 403.193 245.918 403.084 248.68 L 403.084 268.301 C 403.084 268.446 402.948 268.679 402.729 268.679 L 395.081 268.679 C 394.863 268.679 394.726 268.534 394.726 268.301 L 394.726 248.04 C 394.726 245.627 392.46 244.697 390.821 244.697 C 389.318 244.697 386.724 245.918 386.724 248.912 L 386.724 268.243 C 386.724 268.475 386.587 268.621 386.369 268.621 L 378.776 268.621 C 378.557 268.766 378.421 268.592 378.421 268.446 Z M 424.443 244.988 L 424.443 239.465 C 424.443 239.232 424.579 239.087 424.716 239.087 C 428.676 238.273 432.309 237.634 435.777 237.634 C 443.152 237.634 447.44 239.523 447.44 248.011 L 447.44 268.505 C 447.44 268.737 447.304 268.882 447.085 268.882 L 439.847 268.882 C 439.629 268.882 439.575 268.737 439.492 268.592 C 439.411 268.446 438.728 265.597 438.728 265.597 L 439.083 265.597 C 437.034 268.592 434.248 269.522 430.944 269.522 C 425.536 269.522 422.668 265.074 422.668 259.784 C 422.668 251.848 428.13 250.279 432.173 250.279 L 439.192 250.279 L 439.192 248.244 C 439.192 245.773 437.417 245.25 430.725 245.25 C 427.912 245.25 424.907 245.482 424.771 245.482 C 424.661 245.366 424.443 245.133 424.443 244.988 Z M 439.219 255.598 L 434.658 255.598 C 432.254 255.598 430.697 256.557 430.697 259.29 C 430.697 262.255 432.691 262.923 434.603 262.923 C 436.379 262.923 439.192 261.819 439.192 258.04 L 439.192 255.598 L 439.219 255.598 Z M 452.329 268.446 L 452.329 238.593 C 452.329 238.36 452.466 238.215 452.684 238.215 L 459.513 238.215 C 459.731 238.215 459.868 238.36 459.868 238.506 C 459.868 238.651 460.632 243.099 460.632 243.099 L 460.769 243.099 C 462.626 239.087 466.368 237.663 469.646 237.517 C 469.864 237.517 470.001 237.663 470.001 237.895 L 470.001 246.238 C 470.001 246.471 469.782 246.616 469.646 246.616 L 467.734 246.616 C 462.489 246.616 460.715 248.796 460.715 251.615 L 460.715 268.388 C 460.715 268.621 460.496 268.766 460.36 268.766 L 452.767 268.766 C 452.575 268.766 452.329 268.621 452.329 268.446 Z M 326.308 253.563 C 326.308 243.825 329.858 237.721 340.019 237.721 C 350.179 237.721 353.757 243.912 353.757 253.563 C 353.757 263.301 350.207 269.406 340.019 269.406 C 329.858 269.406 326.308 263.301 326.308 253.563 Z M 335.266 253.563 C 335.266 258.854 336.004 262.051 339.964 262.051 C 344.006 262.051 344.689 258.795 344.689 253.563 C 344.689 248.273 343.952 245.075 339.964 245.075 C 336.058 245.075 335.266 248.244 335.266 253.563 Z" style="transform-box: fill-box; transform-origin: 50% 50%; fill: rgb(255, 255, 255);"/><path d="M 289.338 256.023 C 289.702 248.646 287.323 236.667 281.521 226.771 C 281.399 226.514 281.084 226.643 281.157 226.9 C 281.521 228.365 281.642 231.089 279.385 230.961 C 275.428 230.704 279.506 221.63 270.718 215.41 C 270.524 215.281 270.354 215.487 270.402 215.667 C 271.058 216.875 271.325 220.679 269.965 221.964 C 268.825 222.941 266.81 222.684 264.868 219.317 C 261.59 213.61 262.853 207.621 265.062 203.817 C 265.256 203.56 264.989 203.431 264.819 203.483 C 252.778 207.673 250.375 222.71 247.802 228.185 C 247.365 229.136 247.001 229.599 246.297 229.521 C 244.063 229.393 245.641 224.381 246.418 222.71 C 246.539 222.453 246.297 222.324 246.102 222.504 C 239.912 229.316 234.28 241.011 233.236 251.833 C 233.309 251.576 233.115 252.681 233.042 253.581 C 233.042 253.915 232.969 254.275 232.969 254.558 L 232.969 255.766 C 232.823 272.268 245.325 285.712 260.911 285.866 C 276.496 285.995 289.192 272.757 289.338 256.28 L 289.338 256.023 Z M 261.032 269.852 C 253.822 269.775 248.044 263.554 248.069 255.894 C 248.141 248.234 254.016 242.142 261.25 242.194 C 268.485 242.271 274.238 248.491 274.189 256.151 C 274.117 263.863 268.266 269.903 261.032 269.852 Z" style="fill: rgb(240, 78, 35); transform-box: fill-box; transform-origin: 50% 50%;"/></svg>